<?xml version="1.0" encoding="utf-8"?>
<!-- Generator: Adobe Illustrator 16.0.0, SVG Export Plug-In . SVG Version: 6.00 Build 0)  -->
<!DOCTYPE svg PUBLIC "-//W3C//DTD SVG 1.1//EN" "http://www.w3.org/Graphics/SVG/1.1/DTD/svg11.dtd">
<svg version="1.1" id="Calque_1" xmlns="http://www.w3.org/2000/svg" xmlns:xlink="http://www.w3.org/1999/xlink" x="0px" y="0px"
	 width="100px" height="100px" viewBox="0 0 100 100" enable-background="new 0 0 100 100" xml:space="preserve">
<g>
	<g>
		<path fill-rule="evenodd" clip-rule="evenodd" d="M99.264,83.95L68.347,53.669c2.798-4.812,4.396-10.344,4.396-16.234
			c0-18.553-15.809-33.596-35.314-33.596C17.929,3.839,2.12,18.881,2.12,37.435c0,18.556,15.81,33.59,35.309,33.59
			c6.943,0,13.413-1.913,18.873-5.203L86.686,95.58L99.264,83.95z M37.908,58.647c-12.494,0-22.62-9.547-22.62-21.323
			s10.126-21.326,22.62-21.326c12.489,0,22.615,9.55,22.615,21.326S50.396,58.647,37.908,58.647z"/>
	</g>
</g>
</svg>
